<svg xmlns="http://www.w3.org/2000/svg" width="60" height="60" viewBox="0 0 60 60">
  <rect x="0.25" y="0.25" width="58" height="48" fill="none" stroke="#524d48" stroke-width="2" />
  <svg x="5" y="5" width="54" height="44" viewBox="0 0 20 20" preserveAspectRatio="xMidYMid meet">
    <path fill="#524d48" d="M16.5 3h-15a.5.5 0 00-.5.5v11a.5.5 0 00.5.5h15a.5.5 0 00.5-.5v-11a.5.5 0 00-.5-.5zm-.5 9.687l-2.636-2.637a1 1 0 00-1.414 0l-1.536 1.536-3.778-3.779a1 1 0 00-1.414 0L2 11.03V4h14z"/>
    <circle fill="#524d48" cx="13.35" cy="6.65" r="1.35"/>
  </svg>
</svg>